<svg xmlns="http://www.w3.org/2000/svg" viewBox="0 0 50.32 47.85"><defs><style>.cls-1{fill:#fff;}.cls-2{fill:#010101;}</style></defs><title>facebook icon omnia</title><g id="Layer_2" data-name="Layer 2"><g id="Layer_1-2" data-name="Layer 1"><rect class="cls-1" x="10.93" y="2" width="37.39" height="37.39"/><rect class="cls-1" x="10.93" y="2" width="37.39" height="37.39"/><polygon points="8.93 0.03 8.91 0.03 0 8.46 0 47.85 39.39 47.85 50.31 41.39 8.93 41.39 8.93 0.03"/><path d="M50.32,0H8.93V41.39H50.32Zm-2,39.39H10.93V2H48.32Z"/><path class="cls-2" d="M35.5,7H32.19c-3.71,0-6.11,2.47-6.11,6.28V16.2H22.75a.52.52,0,0,0-.52.52v4.19a.52.52,0,0,0,.52.52h3.33V32a.52.52,0,0,0,.52.52h4.34a.52.52,0,0,0,.52-.52V21.43h3.88a.52.52,0,0,0,.52-.52V16.72a.52.52,0,0,0-.16-.37.54.54,0,0,0-.37-.15H31.46V13.75c0-1.18.28-1.78,1.81-1.78H35.5a.52.52,0,0,0,.52-.52V7.56A.52.52,0,0,0,35.5,7Z"/></g></g></svg>