<svg xmlns="http://www.w3.org/2000/svg" viewBox="0 0 50.32 47.85"><defs><style>.cls-1{fill:#fff;}.cls-2{fill:#010101;}</style></defs><title>instagram icon omnia</title><g id="Layer_2" data-name="Layer 2"><g id="Layer_1-2" data-name="Layer 1"><rect class="cls-1" x="10.93" y="2" width="37.39" height="37.39"/><rect class="cls-1" x="10.93" y="2" width="37.39" height="37.39"/><polygon points="8.93 0.03 8.91 0.03 0 8.46 0 47.85 39.39 47.85 50.31 41.39 8.93 41.39 8.93 0.03"/><path d="M50.32,0H8.93V41.39H50.32Zm-2,39.39H10.93V2H48.32Z"/><path class="cls-2" d="M35,7.33H23.89a7,7,0,0,0-6.85,7V25.78a7,7,0,0,0,6.85,7H35a7,7,0,0,0,6.86-7V14.36A7,7,0,0,0,35,7.33Zm4.65,18.45A4.72,4.72,0,0,1,35,30.56H23.89a4.72,4.72,0,0,1-4.65-4.78V14.36a4.72,4.72,0,0,1,4.65-4.77H35a4.71,4.71,0,0,1,4.65,4.77V25.78Z"/><path class="cls-2" d="M29.46,13.5a6.57,6.57,0,1,0,6.4,6.57A6.5,6.5,0,0,0,29.46,13.5Zm0,10.88a4.31,4.31,0,1,1,4.19-4.31A4.26,4.26,0,0,1,29.46,24.38Z"/><path class="cls-2" d="M36.13,11.59a1.58,1.58,0,0,0-1.14.48,1.68,1.68,0,0,0,0,2.35,1.58,1.58,0,0,0,1.14.48,1.6,1.6,0,0,0,1.14-.48,1.7,1.7,0,0,0,0-2.35A1.6,1.6,0,0,0,36.13,11.59Z"/></g></g></svg>