<svg xmlns="http://www.w3.org/2000/svg" viewBox="0 0 50.32 47.85"><defs><style>.cls-1{fill:#fff;}.cls-2{fill:#010101;}</style></defs><title>linkedin icon omnia</title><g id="Layer_2" data-name="Layer 2"><g id="Layer_1-2" data-name="Layer 1"><rect class="cls-1" x="10.93" y="2" width="37.39" height="37.39"/><rect class="cls-1" x="10.93" y="2" width="37.39" height="37.39"/><polygon points="8.93 0.03 8.91 0.03 0 8.46 0 47.85 39.39 47.85 50.31 41.39 8.93 41.39 8.93 0.03"/><path d="M50.32,0H8.93V41.39H50.32Zm-2,39.39H10.93V2H48.32Z"/><path id="LinkedIn" class="cls-2" d="M42.85,22.42v9.45H37.76V23.06c0-2.22-.74-3.73-2.58-3.73a2.82,2.82,0,0,0-2.61,2,4.21,4.21,0,0,0-.16,1.34v9.2H27.32s.07-14.93,0-16.47H32.4v2.33l0,.05h0v-.05A5,5,0,0,1,37,15C40.34,15,42.85,17.36,42.85,22.42ZM22,7.46a2.74,2.74,0,0,0-2.87,2.84,2.73,2.73,0,0,0,2.81,2.85h0a2.75,2.75,0,0,0,2.88-2.85A2.73,2.73,0,0,0,22,7.46ZM19.42,31.87H24.5V15.4H19.42Z"/></g></g></svg>