<svg xmlns="http://www.w3.org/2000/svg" viewBox="0 0 94.32 94.35"><defs><style>.cls-1{fill:#fff;}.cls-2{fill:#231f20;}</style></defs><title>omnia logo filled</title><g id="Layer_2" data-name="Layer 2"><g id="Layer_1-2" data-name="Layer 1"><rect class="cls-1" x="7.23" y="0.91" width="85.98" height="85.69"/><path class="cls-2" d="M94.26.06,6.92,0,0,9.09V94.35H85.26l9.06-6.89ZM92.55,85.64H8.71V1.8H92.55Z"/><path class="cls-2" d="M32.27,69.71a3.21,3.21,0,0,0,2.51-1.13,3.33,3.33,0,0,0,.75-2.4,3.21,3.21,0,0,0-2.33-3,4.07,4.07,0,0,0-1.88,0,3.23,3.23,0,0,0-2.32,3,3.3,3.3,0,0,0,.77,2.4A3.16,3.16,0,0,0,32.27,69.71Zm-.67-5.65a2.57,2.57,0,0,1,.66-.09,3,3,0,0,1,.69.09,2.35,2.35,0,0,1,1.68,2.4A2.56,2.56,0,0,1,34.08,68a2.49,2.49,0,0,1-1.81.83A2.32,2.32,0,0,1,30.48,68a2.44,2.44,0,0,1-.55-1.59A2.32,2.32,0,0,1,31.6,64.06Z"/><path class="cls-2" d="M46.83,63.19a2.75,2.75,0,0,0-2.65,1.66,2.78,2.78,0,0,0-4.9-.35v-.87a.43.43,0,0,0-.44-.44.45.45,0,0,0-.45.44v5.6a.46.46,0,0,0,.91,0V66.41a2.32,2.32,0,0,1,2.34-2.34,2,2,0,0,1,1.08.29,2,2,0,0,1,.87,1.77v3.1a.46.46,0,0,0,.92,0V66.48a2.32,2.32,0,0,1,2.36-2.42,1.89,1.89,0,0,1,1.94,1.85v3.32a.4.4,0,0,0,.45.44.42.42,0,0,0,.47-.44V65.88A2.75,2.75,0,0,0,46.83,63.19Z"/><path class="cls-2" d="M56.2,63.11a2.54,2.54,0,0,0-2.39,1.3v-.78a.45.45,0,0,0-.9,0v5.61a.42.42,0,0,0,.47.44.4.4,0,0,0,.45-.44v-2.9A2.38,2.38,0,0,1,56.19,64a1.94,1.94,0,0,1,1.94,1.95v3.32a.42.42,0,0,0,.47.44.41.41,0,0,0,.45-.44V65.91A2.74,2.74,0,0,0,56.2,63.11Z"/><path class="cls-2" d="M62.13,61.72v.56c0,.58.94.56.94,0v-.56A.47.47,0,0,0,62.13,61.72Z"/><path class="cls-2" d="M62.14,63.63v5.64c0,.54.92.55.92,0V63.62C63.06,63.08,62.14,63.09,62.14,63.63Z"/><path class="cls-2" d="M71,63.65v.47a2.28,2.28,0,0,0-2-1,3,3,0,0,0-1.34.24h0a3.11,3.11,0,0,0-1.93,2.89,3.32,3.32,0,0,0,1.4,2.95,3.17,3.17,0,0,0,1.81.54,2.37,2.37,0,0,0,2-1.14v.6a.42.42,0,0,0,.45.45.43.43,0,0,0,.46-.45V63.65a.44.44,0,0,0-.46-.46A.42.42,0,0,0,71,63.65Zm0,3.28a2,2,0,0,1-2.12,1.95,2.36,2.36,0,0,1-1.29-.47,2.53,2.53,0,0,1-.91-2.13,2.7,2.7,0,0,1,.18-.93A2.25,2.25,0,0,1,69,64a1.87,1.87,0,0,1,2,1.93Z"/><path class="cls-2" d="M43.58,55.6c3.92,1.33,8.88,1.82,12.62-.31a13.7,13.7,0,0,0,6.39-10,22,22,0,0,0-1.42-11.46c-.56-1.3-1.53-3.34-3.05-3.71s-2.55.82-3.4,1.83c-.06-2-.41-4.22-1.83-5.7a4,4,0,0,0-5.73-.07,2.06,2.06,0,0,0-1.62-2.24c-1.48-.4-2.15.54-2.42,1.81-.64,3-1.27,6-1.91,9-.31,1.46-.63,2.91-.94,4.36a10.35,10.35,0,0,0-.57,3.1c.21,1.91,2.49,3,3.72,1.26s1.45-4.08,2-6c.68-2.39,1.38-5.48,3.06-7.38,2.3-2.59,2.15,3.77,2,4.86-.16,1.53-.44,3-.74,4.55-.2,1-.46,1.88.18,2.79a2.86,2.86,0,0,0,2,1.19c1.26.08,1.7-.85,2-1.87.76-2.23,1.54-5.42,3.47-6.95,1,.93,1.12,3.1,1.26,4.39a19,19,0,0,1-.17,5.68c-.64,3.35-2.53,6-5.94,6.86-6.73,1.7-14.3-2.87-16.85-9-2.46-6-1.66-13.57,3.12-18.19s12.39-4.93,18.11-1.7A17.32,17.32,0,0,1,65.37,33.8c.37,1.57.23,3.13.49,4.69A2.19,2.19,0,0,0,68,40.44a1.59,1.59,0,0,0,.33-.08,1,1,0,0,0,.86-.7,2.71,2.71,0,0,0,.22-.88c.34-1.58.39-3.17.73-4.75.18-.84.64-1.67.82-2.52a5.84,5.84,0,0,0,.33-1.8c-.12-1.1-1.44-1.76-2.15-.73a7.14,7.14,0,0,0-.91,2.49,23.27,23.27,0,0,0-1.72-3.81A21.91,21.91,0,0,0,51.76,17.05a18.43,18.43,0,0,0-17.8,6c-4.25,5.15-5.27,12.46-3.54,18.8A19.76,19.76,0,0,0,43.58,55.6Z"/></g></g></svg>