<svg xmlns="http://www.w3.org/2000/svg" viewBox="0 0 86.14 86.17"><defs><style>.cls-1{fill:#fff;}.cls-2{fill:#231f20;stroke:#fff;stroke-width:1.3px;}</style></defs><title>lgoo omnia bw</title><g id="Layer_2" data-name="Layer 2"><g id="Layer_1-2" data-name="Layer 1"><polygon class="cls-1" points="77.87 86.17 0 86.17 0 8.3 6.32 0 86.09 0.05 86.14 79.88 77.87 86.17"/><rect class="cls-2" x="7.3" y="1" width="77.87" height="77.87"/><path class="cls-1" d="M27.18,62.63a3,3,0,0,1-.69-2.19,2.92,2.92,0,0,1,2.11-2.69,3.24,3.24,0,0,1,.87-.11,3.2,3.2,0,0,1,.85.11,2.93,2.93,0,0,1,2.13,2.69,3,3,0,0,1-.69,2.19,3.06,3.06,0,0,1-4.58,0Zm2.28-4.21a2.64,2.64,0,0,0-.6.08,2.14,2.14,0,0,0-1.53,2.18,2.22,2.22,0,0,0,.51,1.45,2.13,2.13,0,0,0,1.63.76,2.25,2.25,0,0,0,1.65-.76,2.35,2.35,0,0,0,.5-1.43,2.15,2.15,0,0,0-1.53-2.2A3,3,0,0,0,29.46,58.42Z"/><path class="cls-1" d="M44.58,60.2a1.73,1.73,0,0,0-1.78-1.7,2.12,2.12,0,0,0-2.15,2.21v2.52a.42.42,0,0,1-.84,0V60.39A1.88,1.88,0,0,0,39,58.78a1.8,1.8,0,0,0-1-.27,2.12,2.12,0,0,0-2.14,2.14v2.58a.42.42,0,0,1-.83,0V58.11a.41.41,0,0,1,.41-.4.39.39,0,0,1,.4.4v.79a2.54,2.54,0,0,1,4.47.32,2.54,2.54,0,0,1,2.43-1.51,2.49,2.49,0,0,1,2.64,2.45v3.07a.38.38,0,0,1-.42.4.37.37,0,0,1-.41-.4Z"/><path class="cls-1" d="M53.09,60.2a1.77,1.77,0,0,0-1.77-1.79,2.18,2.18,0,0,0-2.16,2.16v2.66a.37.37,0,0,1-.41.4.39.39,0,0,1-.43-.4V58.1a.41.41,0,0,1,.82,0v.71a2.34,2.34,0,0,1,2.19-1.19,2.51,2.51,0,0,1,2.6,2.57v3a.37.37,0,0,1-.42.4.38.38,0,0,1-.42-.4Z"/><path class="cls-1" d="M57.6,56.88c0,.51-.86.52-.86,0v-.52a.43.43,0,0,1,.86,0Zm-.85,1.23c0-.49.84-.5.84,0v5.16c0,.51-.84.5-.84,0Z"/><path class="cls-1" d="M61.81,57.89A2.65,2.65,0,0,1,63,57.67a2.06,2.06,0,0,1,1.81.89v-.43a.39.39,0,0,1,.41-.42.41.41,0,0,1,.43.42v5.08a.4.4,0,0,1-.43.41.38.38,0,0,1-.41-.41v-.55a2.16,2.16,0,0,1-1.85,1,2.92,2.92,0,0,1-1.65-.49,3,3,0,0,1-1.28-2.69,2.83,2.83,0,0,1,1.76-2.65Zm3,3.23v-.9A1.71,1.71,0,0,0,63,58.46a2.06,2.06,0,0,0-2,1.22,2.52,2.52,0,0,0-.17.85,2.32,2.32,0,0,0,.84,1.94,2.19,2.19,0,0,0,1.18.44A1.81,1.81,0,0,0,64.84,61.12Z"/><path class="cls-1" d="M65.1,27.14c-.11-1-1.32-1.62-2-.67a6.77,6.77,0,0,0-.83,2.27,20.5,20.5,0,0,0-1.57-3.48,20,20,0,0,0-13.46-9.69A16.82,16.82,0,0,0,31,21.09c-3.89,4.7-4.82,11.37-3.24,17.17a18.05,18.05,0,0,0,12,12.52c3.58,1.21,8.11,1.66,11.53-.29a12.53,12.53,0,0,0,5.83-9.14,20.11,20.11,0,0,0-1.29-10.46c-.52-1.19-1.41-3.05-2.79-3.39s-2.33.75-3.1,1.67c-.06-1.8-.38-3.85-1.67-5.21a3.67,3.67,0,0,0-5.24-.06,1.87,1.87,0,0,0-1.48-2c-1.35-.37-2,.49-2.21,1.65-.59,2.74-1.16,5.48-1.75,8.21-.28,1.33-.57,2.65-.85,4a9.55,9.55,0,0,0-.52,2.83c.19,1.74,2.27,2.78,3.39,1.15S41,36,41.48,34.19c.62-2.18,1.26-5,2.8-6.74,2.09-2.36,2,3.45,1.86,4.45a41.72,41.72,0,0,1-.68,4.15,2.94,2.94,0,0,0,.17,2.54,2.56,2.56,0,0,0,1.87,1.09c1.15.07,1.55-.77,1.87-1.7.69-2,1.4-5,3.17-6.35.91.85,1,2.83,1.14,4a17.37,17.37,0,0,1-.15,5.19c-.59,3.06-2.31,5.48-5.43,6.27C42,48.64,35,44.47,32.72,38.83c-2.25-5.45-1.52-12.39,2.84-16.61s11.32-4.5,16.54-1.55A15.69,15.69,0,0,1,58,26.61a15.91,15.91,0,0,1,1.66,4.26c.34,1.43.21,2.86.44,4.28a2,2,0,0,0,2,1.78,1,1,0,0,0,.31-.07.88.88,0,0,0,.78-.64,2.54,2.54,0,0,0,.2-.8c.31-1.45.36-2.9.67-4.34.16-.77.58-1.53.75-2.3A5.51,5.51,0,0,0,65.1,27.14Z"/></g></g></svg>