<svg id="Layer_1" data-name="Layer 1" xmlns="http://www.w3.org/2000/svg" viewBox="0 0 146 129.99981"><defs><style>.cls-1{fill:#ececec}.cls-1,.cls-2{isolation:isolate;}.cls-3{fill:#b11c74;}</style></defs><title>omnia logo vector5</title><path class="cls-1" d="M0,0H146a0,0,0,0,1,0,0V117.99981a12,12,0,0,1-12,12H12a12,12,0,0,1-12-12V0A0,0,0,0,1,0,0Z"/><g id="Layer_2" data-name="Layer 2" class="cls-2"><g id="Layer_1-2" data-name="Layer 1-2"><path class="cls-3" d="M101.35115,45.903c-.16672-1.50223-1.95818-2.39245-2.92358-.99368A9.97253,9.97253,0,0,0,97.194,48.28589a30.07328,30.07328,0,0,0-2.3243-5.16221,29.705,29.705,0,0,0-19.96835-14.3838A24.9889,24.9889,0,0,0,50.7893,36.93324c-5.76644,6.97323-7.14183,16.87068-4.806,25.46642,2.4647,9.0697,9.00194,15.57858,17.83448,18.57325,5.316,1.80235,12.03458,2.46809,17.09935-.42026,4.88676-2.78692,7.86542-8.11768,8.66043-13.56342a29.84718,29.84718,0,0,0-1.9269-15.51667c-.76271-1.76619-2.07914-4.532-4.133-5.03234-1.97288-.48056-3.45132,1.11677-4.60173,2.47847-.09234-2.66758-.56749-5.71483-2.48058-7.72818-2.2285-2.3454-5.4181-2.09629-7.76659-.09453a2.78652,2.78652,0,0,0-2.20265-3.02732c-1.99717-.547-2.90371.728-3.27341,2.45625-.86847,4.059-1.71854,8.122-2.59071,12.18029q-.63387,2.94944-1.27324,5.89761c-.27666,1.27275-.91352,2.88172-.76684,4.20307.2872,2.58731,3.3725,4.12034,5.03518,1.71141,1.57165-2.27708,1.96282-5.52907,2.70908-8.14582.922-3.23271,1.867-7.41925,4.15518-10.00361,3.10471-3.50648,2.90468,5.11851,2.75556,6.59515-.2091,2.07174-.587,4.1235-.99906,6.16308-.27285,1.35052-.62978,2.54209.2428,3.76942a3.86784,3.86784,0,0,0,2.77293,1.618c1.71717.10719,2.30287-1.15086,2.77354-2.531,1.02992-3.02019,2.08636-7.34533,4.703-9.417C84.06251,53.829,84.22006,56.7683,84.41367,58.51a25.76517,25.76517,0,0,1-.2276,7.69346c-.87678,4.54044-3.42906,8.1334-8.05768,9.30148-9.11791,2.301-19.36869-3.88823-22.81972-12.25064C49.969,55.16178,51.0559,44.863,57.53007,38.61469c6.57545-6.346,16.79261-6.6838,24.537-2.31162a23.41557,23.41557,0,0,1,8.805,8.8115,23.79459,23.79459,0,0,1,2.47256,6.32263c.49783,2.13092.301,4.24492.65307,6.36029a2.994,2.994,0,0,0,2.88922,2.64068,2.11693,2.11693,0,0,0,.45112-.10986,1.30761,1.30761,0,0,0,1.15945-.94939,3.55464,3.55464,0,0,0,.30426-1.19434c.45593-2.13871.525-4.29127.98449-6.42919.24535-1.14165.8716-2.27079,1.11966-3.41193A8.35592,8.35592,0,0,0,101.35115,45.903Z" transform="translate(0 -0.00016)"/><path class="cls-3" d="M44.80185,99.79838a4.59791,4.59791,0,0,1-1.04713-3.29595,4.40945,4.40945,0,0,1,3.17583-4.03425,5.43915,5.43915,0,0,1,2.575,0,4.40857,4.40857,0,0,1,3.19293,4.03425,4.58707,4.58707,0,0,1-1.03005,3.29595,4.58735,4.58735,0,0,1-6.86657,0Zm3.41606-6.31723a3.65289,3.65289,0,0,0-.90967.12011A3.20066,3.20066,0,0,0,45.025,96.86277a3.37178,3.37178,0,0,0,.75539,2.18027,3.20158,3.20158,0,0,0,2.45487,1.133,3.38567,3.38567,0,0,0,2.472-1.13308,3.51251,3.51251,0,0,0,.75539-2.14578,3.22289,3.22289,0,0,0-2.30033-3.296A4.0612,4.0612,0,0,0,48.21791,93.48115Z" transform="translate(0 -0.00016)"/><path class="cls-3" d="M70.89263,96.14181a2.59417,2.59417,0,0,0-2.64639-2.54089l-.01455.00034A3.17111,3.17111,0,0,0,65.002,96.71265q-.00187.10082.00265.20161v3.77667a.63626.63626,0,0,1-1.27055,0v-4.2574a2.80107,2.80107,0,0,0-1.18433-2.42044,2.76117,2.76117,0,0,0-1.47634-.39478,3.17148,3.17148,0,0,0-3.21,3.1325q-.00048.03888,0,.07776v3.86235a.628.628,0,0,1-1.2532,0V93.0175a.612.612,0,0,1,.61793-.60084.57655.57655,0,0,1,.60084.5512q.00108.02481,0,.04964v1.1846a3.811,3.811,0,0,1,6.712.48073,4.01487,4.01487,0,0,1,7.59929,1.26159q.0042.07287.00557.14588V100.691a.57735.57735,0,0,1-.63527.60084.55581.55581,0,0,1-.61792-.60084Z" transform="translate(0 -0.00016)"/><path class="cls-3" d="M83.66028,96.14181a2.655,2.655,0,0,0-2.63189-2.67791q-.0144-.00012-.02878-.00009a3.25973,3.25973,0,0,0-3.22735,3.24443V100.691a.55577.55577,0,0,1-.61792.60084.58284.58284,0,0,1-.65236-.60084V93.00042a.61812.61812,0,0,1,1.23585.01708V94.082a3.48569,3.48569,0,0,1,3.27886-1.78544,3.75138,3.75138,0,0,1,3.89516,3.60186q.00477.12162.00162.24335V100.691a.55576.55576,0,0,1-.61792.60083.57741.57741,0,0,1-.63528-.60083Z" transform="translate(0 -0.00016)"/><path class="cls-3" d="M90.42194,91.16347a.64682.64682,0,0,1-1.2879,0V90.391a.64621.64621,0,0,1,1.2879,0Zm-1.27081,1.854c0-.738,1.25319-.75538,1.25319-.01708v7.74206c0,.75538-1.25319.738-1.25319,0Z" transform="translate(0 -0.00016)"/><path class="cls-3" d="M96.73784,92.67424a4.115,4.115,0,0,1,1.83642-.32618,3.09364,3.09364,0,0,1,2.71245,1.33888v-.65209a.57686.57686,0,0,1,.61819-.61819.59935.59935,0,0,1,.634.56259q.00166.02777.00074.0556v7.62168a.59023.59023,0,0,1-.63474.61819.56869.56869,0,0,1-.61819-.61819v-.824a3.23742,3.23742,0,0,1-2.78079,1.56231,4.33923,4.33923,0,0,1-2.47222-.73832,4.54682,4.54682,0,0,1-1.92237-4.034,4.24392,4.24392,0,0,1,2.64359-3.9654Zm4.54887,4.858v-1.356a2.56373,2.56373,0,0,0-2.477-2.64763q-.12629-.00422-.25253.004a3.07256,3.07256,0,0,0-2.9356,1.83669,3.721,3.721,0,0,0-.25731,1.27028,3.49157,3.49157,0,0,0,1.25293,2.91825,3.3259,3.3259,0,0,0,1.76862.65236,2.71069,2.71069,0,0,0,2.89434-2.51364q.00577-.08207.00656-.16438Z" transform="translate(0 -0.00016)"/></g></g></svg>