<svg xmlns="http://www.w3.org/2000/svg" viewBox="0 0 86.14 86.17"><defs><style>.cls-1{fill:none;}.cls-2{fill:#fff;}</style></defs><title>omnia logo transparent</title><g id="Layer_2" data-name="Layer 2"><g id="Layer_1-2" data-name="Layer 1"><path class="cls-1" d="M63,58.46a2.06,2.06,0,0,0-2,1.22,2.52,2.52,0,0,0-.17.85,2.32,2.32,0,0,0,.84,1.94,2.19,2.19,0,0,0,1.18.44,1.81,1.81,0,0,0,1.93-1.79v-.9A1.71,1.71,0,0,0,63,58.46Z"/><path class="cls-1" d="M29.47,62.89a2.25,2.25,0,0,0,1.65-.76,2.35,2.35,0,0,0,.5-1.43,2.15,2.15,0,0,0-1.53-2.2,3,3,0,0,0-.63-.08,2.64,2.64,0,0,0-.6.08,2.14,2.14,0,0,0-1.53,2.18,2.22,2.22,0,0,0,.51,1.45A2.13,2.13,0,0,0,29.47,62.89Z"/><path class="cls-1" d="M8,78.22H84.52V1.65H8Zm37.46-15a.38.38,0,0,1-.42.4.37.37,0,0,1-.41-.4v-3a1.73,1.73,0,0,0-1.78-1.7,2.12,2.12,0,0,0-2.15,2.21v2.52a.42.42,0,0,1-.84,0V60.39A1.88,1.88,0,0,0,39,58.78a1.8,1.8,0,0,0-1-.27,2.12,2.12,0,0,0-2.14,2.14v2.58a.42.42,0,0,1-.83,0V58.11a.41.41,0,0,1,.41-.4.39.39,0,0,1,.4.4v.79a2.54,2.54,0,0,1,4.47.32,2.54,2.54,0,0,1,2.43-1.51,2.49,2.49,0,0,1,2.64,2.45Zm8.52,0a.37.37,0,0,1-.42.4.38.38,0,0,1-.42-.4v-3a1.77,1.77,0,0,0-1.77-1.79,2.18,2.18,0,0,0-2.16,2.16v2.66a.37.37,0,0,1-.41.4.39.39,0,0,1-.43-.4V58.1a.41.41,0,0,1,.82,0v.71a2.34,2.34,0,0,1,2.19-1.19,2.51,2.51,0,0,1,2.6,2.57Zm3.66,0c0,.51-.84.5-.84,0V58.11c0-.49.84-.5.84,0Zm0-6.38c0,.51-.86.52-.86,0v-.52a.43.43,0,0,1,.86,0Zm8.08,1.25v5.08a.39.39,0,0,1-.43.41.38.38,0,0,1-.41-.41v-.55a2.16,2.16,0,0,1-1.85,1,2.92,2.92,0,0,1-1.65-.49,3,3,0,0,1-1.28-2.69,2.83,2.83,0,0,1,1.76-2.65v0A2.65,2.65,0,0,1,63,57.67a2.06,2.06,0,0,1,1.81.89v-.43a.39.39,0,0,1,.41-.42A.41.41,0,0,1,65.68,58.13ZM31,21.09a16.82,16.82,0,0,1,16.25-5.52,20,20,0,0,1,13.46,9.69,19.74,19.74,0,0,1,1.57,3.48,6.77,6.77,0,0,1,.83-2.27c.65-.95,1.86-.35,2,.67a5.51,5.51,0,0,1-.3,1.64c-.17.77-.59,1.53-.75,2.3-.31,1.44-.36,2.89-.67,4.34a2.54,2.54,0,0,1-.2.8.88.88,0,0,1-.78.64,1,1,0,0,1-.31.07,2,2,0,0,1-2-1.78c-.23-1.42-.1-2.85-.44-4.28A15.91,15.91,0,0,0,58,26.61a15.69,15.69,0,0,0-5.94-5.94C46.88,17.72,40,18,35.56,22.22s-5.09,11.16-2.84,16.61C35,44.47,42,48.64,48.1,47.09c3.12-.79,4.84-3.21,5.43-6.27a17.37,17.37,0,0,0,.15-5.19c-.13-1.17-.23-3.15-1.14-4C50.77,33,50.06,35.94,49.37,38c-.32.93-.72,1.77-1.87,1.7a2.56,2.56,0,0,1-1.87-1.09,2.94,2.94,0,0,1-.17-2.54,41.72,41.72,0,0,0,.68-4.15c.1-1,.23-6.81-1.86-4.45-1.54,1.74-2.18,4.56-2.8,6.74-.5,1.77-.77,4-1.83,5.49s-3.2.59-3.39-1.15a9.55,9.55,0,0,1,.52-2.83c.28-1.33.57-2.65.85-4,.59-2.73,1.16-5.47,1.75-8.21.25-1.16.86-2,2.21-1.65a1.87,1.87,0,0,1,1.48,2,3.67,3.67,0,0,1,5.24.06c1.29,1.36,1.61,3.41,1.67,5.21.77-.92,1.77-2,3.1-1.67s2.27,2.2,2.79,3.39a20.11,20.11,0,0,1,1.29,10.46,12.53,12.53,0,0,1-5.83,9.14c-3.42,1.95-7.95,1.5-11.53.29a18.05,18.05,0,0,1-12-12.52C26.2,32.46,27.13,25.79,31,21.09ZM28.6,57.75a3.24,3.24,0,0,1,.87-.11,3.2,3.2,0,0,1,.85.11,2.93,2.93,0,0,1,2.13,2.69,3,3,0,0,1-.69,2.19,3.06,3.06,0,0,1-4.58,0,3,3,0,0,1-.69-2.19A2.92,2.92,0,0,1,28.6,57.75Z"/><path class="cls-2" d="M86.09.05,6.32,0,0,8.3V86.17H77.87l8.27-6.29ZM84.52,78.22H8V1.65H84.52Z"/><path class="cls-2" d="M29.47,63.66a2.89,2.89,0,0,0,2.29-1,3,3,0,0,0,.69-2.19,2.93,2.93,0,0,0-2.13-2.69,3.2,3.2,0,0,0-.85-.11,3.24,3.24,0,0,0-.87.11,2.92,2.92,0,0,0-2.11,2.69,3,3,0,0,0,.69,2.19A2.91,2.91,0,0,0,29.47,63.66Zm-.61-5.16a2.64,2.64,0,0,1,.6-.08,3,3,0,0,1,.63.08,2.15,2.15,0,0,1,1.53,2.2,2.35,2.35,0,0,1-.5,1.43,2.25,2.25,0,0,1-1.65.76,2.13,2.13,0,0,1-1.63-.76,2.22,2.22,0,0,1-.51-1.45A2.14,2.14,0,0,1,28.86,58.5Z"/><path class="cls-2" d="M42.77,57.71a2.54,2.54,0,0,0-2.43,1.51,2.54,2.54,0,0,0-4.47-.32v-.79a.39.39,0,0,0-.4-.4.41.41,0,0,0-.41.4v5.12a.42.42,0,0,0,.83,0V60.65A2.12,2.12,0,0,1,38,58.51a1.8,1.8,0,0,1,1,.27,1.88,1.88,0,0,1,.79,1.61v2.84a.42.42,0,0,0,.84,0V60.71A2.12,2.12,0,0,1,42.8,58.5a1.73,1.73,0,0,1,1.78,1.7v3a.37.37,0,0,0,.41.4.38.38,0,0,0,.42-.4V60.16A2.49,2.49,0,0,0,42.77,57.71Z"/><path class="cls-2" d="M51.33,57.63a2.34,2.34,0,0,0-2.19,1.19v-.71a.41.41,0,0,0-.82,0v5.13a.39.39,0,0,0,.43.4.37.37,0,0,0,.41-.4V60.57a2.18,2.18,0,0,1,2.16-2.16,1.77,1.77,0,0,1,1.77,1.79v3a.38.38,0,0,0,.42.4.37.37,0,0,0,.42-.4v-3A2.51,2.51,0,0,0,51.33,57.63Z"/><path class="cls-2" d="M56.74,56.36v.52c0,.52.86.51.86,0v-.52A.43.43,0,0,0,56.74,56.36Z"/><path class="cls-2" d="M56.75,58.11v5.15c0,.5.84.51.84,0V58.1C57.59,57.61,56.75,57.62,56.75,58.11Z"/><path class="cls-2" d="M64.84,58.13v.43A2.06,2.06,0,0,0,63,57.67a2.65,2.65,0,0,0-1.22.22v0a2.83,2.83,0,0,0-1.76,2.65,3,3,0,0,0,1.28,2.69A2.92,2.92,0,0,0,63,63.7a2.16,2.16,0,0,0,1.85-1v.55a.38.38,0,0,0,.41.41.39.39,0,0,0,.43-.41V58.13a.41.41,0,0,0-.43-.42A.39.39,0,0,0,64.84,58.13Zm0,3a1.81,1.81,0,0,1-1.93,1.79,2.19,2.19,0,0,1-1.18-.44,2.32,2.32,0,0,1-.84-1.94,2.52,2.52,0,0,1,.17-.85,2.06,2.06,0,0,1,2-1.22,1.71,1.71,0,0,1,1.82,1.76Z"/><path class="cls-2" d="M39.8,50.78c3.58,1.21,8.11,1.66,11.53-.29a12.53,12.53,0,0,0,5.83-9.14,20.11,20.11,0,0,0-1.29-10.46c-.52-1.19-1.41-3.05-2.79-3.39s-2.33.75-3.1,1.67c-.06-1.8-.38-3.85-1.67-5.21a3.67,3.67,0,0,0-5.24-.06,1.87,1.87,0,0,0-1.48-2c-1.35-.37-2,.49-2.21,1.65-.59,2.74-1.16,5.48-1.75,8.21-.28,1.33-.57,2.65-.85,4a9.55,9.55,0,0,0-.52,2.83c.19,1.74,2.27,2.78,3.39,1.15S41,36,41.48,34.19c.62-2.18,1.26-5,2.8-6.74,2.09-2.36,2,3.45,1.86,4.45a41.72,41.72,0,0,1-.68,4.15,2.94,2.94,0,0,0,.17,2.54,2.56,2.56,0,0,0,1.87,1.09c1.15.07,1.55-.77,1.87-1.7.69-2,1.4-5,3.17-6.35.91.85,1,2.83,1.14,4a17.37,17.37,0,0,1-.15,5.19c-.59,3.06-2.31,5.48-5.43,6.27C42,48.64,35,44.47,32.72,38.83c-2.25-5.45-1.52-12.39,2.84-16.61s11.32-4.5,16.54-1.55A15.69,15.69,0,0,1,58,26.61a15.91,15.91,0,0,1,1.66,4.26c.34,1.43.21,2.86.44,4.28a2,2,0,0,0,2,1.78,1,1,0,0,0,.31-.07.88.88,0,0,0,.78-.64,2.54,2.54,0,0,0,.2-.8c.31-1.45.36-2.9.67-4.34.16-.77.58-1.53.75-2.3a5.51,5.51,0,0,0,.3-1.64c-.11-1-1.32-1.62-2-.67a6.77,6.77,0,0,0-.83,2.27,19.74,19.74,0,0,0-1.57-3.48,20,20,0,0,0-13.46-9.69A16.82,16.82,0,0,0,31,21.09c-3.89,4.7-4.82,11.37-3.24,17.17A18.05,18.05,0,0,0,39.8,50.78Z"/></g></g></svg>